<svg xmlns="http://www.w3.org/2000/svg" width="" height="" viewBox="0 0 22.666 22.666">
                                  <g id="Group_395" data-name="Group 395" transform="translate(0)">
                                    <path id="Path_17264" data-name="Path 17264" d="M1056.535-14.2v1.178h-2.656l5.443,5.443-.861.856-5.467-5.468v2.725H1051.8v-4.29a.815.815,0,0,1,.444-.444Z" transform="translate(-1051.801 14.2)" fill="#2e2e2e" fill-rule="evenodd"></path>
                                    <path id="Path_17265" data-name="Path 17265" d="M1307.162-9.466h-1.177v-2.656l-5.443,5.443-.857-.861,5.467-5.467h-2.724V-14.2h4.29a.814.814,0,0,1,.444.444Z" transform="translate(-1284.497 14.2)" fill="#2e2e2e" fill-rule="evenodd"></path>
                                    <path id="Path_17266" data-name="Path 17266" d="M1051.8,235.7h1.178v2.65l5.446-5.428.858.835-5.443,5.443.022.041h2.672v1.193h-4.29a.815.815,0,0,1-.444-.444Z" transform="translate(-1051.801 -217.771)" fill="#2e2e2e" fill-rule="evenodd"></path>
                                    <path id="Path_17267" data-name="Path 17267" d="M1301.524,241.163v-1.178h2.656l-5.443-5.443.861-.856,5.467,5.468v-2.725h1.193v4.29a.815.815,0,0,1-.444.444Z" transform="translate(-1283.592 -218.497)" fill="#2e2e2e" fill-rule="evenodd"></path>
                                  </g>
                                </svg>