<?xml version="1.0" encoding="utf-8"?>
<!-- Generator: Adobe Illustrator 22.1.0, SVG Export Plug-In . SVG Version: 6.00 Build 0)  -->
<svg version="1.1" id="Layer_1" xmlns="http://www.w3.org/2000/svg" xmlns:xlink="http://www.w3.org/1999/xlink" x="0px" y="0px"
	 viewBox="0 0 149.8 50" style="enable-background:new 0 0 149.8 50;" xml:space="preserve">
<style type="text/css">
	.st0{fill:#FFFFFF;}
</style>
<g>
	<g>
		<path class="st0" d="M62.4,41.6c0,0.5-0.1,1-0.4,1.4c-0.3,0.4-0.7,0.8-1.2,1c-0.5,0.3-1.1,0.4-1.7,0.4h-4.2v-9.7h3.9
			c0.6,0,1.1,0.1,1.6,0.3c0.5,0.2,0.8,0.5,1.1,0.9c0.2,0.4,0.4,0.8,0.4,1.3c0,0.5-0.1,0.9-0.4,1.2c-0.2,0.3-0.5,0.6-0.9,0.7v0
			c0.5,0.2,0.9,0.4,1.2,0.8C62.2,40.5,62.4,41,62.4,41.6z M60.1,37.4c0-0.3-0.1-0.6-0.4-0.8c-0.3-0.2-0.6-0.4-0.9-0.4h-2.1v2.4h2.1
			c0.4,0,0.7-0.1,0.9-0.4C60,38,60.1,37.8,60.1,37.4z M60.6,41.5c0-0.2-0.1-0.5-0.2-0.7c-0.1-0.2-0.3-0.4-0.5-0.5
			c-0.2-0.1-0.5-0.2-0.8-0.2h-2.4v2.8h2.4c0.4,0,0.8-0.1,1.1-0.4C60.4,42.2,60.6,41.9,60.6,41.5z"/>
		<path class="st0" d="M67.5,34.7h1.9l3.8,9.7h-1.8l-0.9-2.4h-4.2l-0.9,2.4h-1.8L67.5,34.7z M69.9,40.5l-1.4-3.7h0L67,40.5H69.9z"/>
		<path class="st0" d="M73.6,36.4v-1.7H81v1.7h-2.8v8h-1.7v-8H73.6z"/>
		<path class="st0" d="M85.1,34.7v4h4.6v-4h1.7v9.7h-1.7v-4.1h-4.6v4.1h-1.7v-9.7H85.1z"/>
		<path class="st0" d="M93.8,34.7h1.8l2.2,7h0l2.2-7h1.7l2.2,7h0l2.2-7h1.8l-3.2,9.7H103l-2.1-6.9h0l-2.1,6.9h-1.7L93.8,34.7z"/>
		<path class="st0" d="M112,34.7h1.9l3.8,9.7H116l-0.9-2.4h-4.2l-0.9,2.4h-1.8L112,34.7z M114.5,40.5l-1.4-3.7h0l-1.4,3.7H114.5z"/>
		<path class="st0" d="M124.2,34.7c0.6,0,1.2,0.1,1.7,0.4c0.5,0.3,0.9,0.6,1.1,1.1c0.3,0.5,0.4,1,0.4,1.6c0,0.7-0.2,1.3-0.5,1.8
			c-0.4,0.5-0.8,0.8-1.3,1.1l2.1,3.7h-1.9l-1.9-3.5h-2.1v3.5H120v-9.7H124.2z M124.2,39.4c0.3,0,0.5-0.1,0.7-0.2
			c0.2-0.1,0.4-0.3,0.5-0.5c0.1-0.2,0.2-0.5,0.2-0.8c0-0.3-0.1-0.6-0.2-0.8c-0.1-0.2-0.3-0.4-0.5-0.5c-0.2-0.1-0.5-0.2-0.7-0.2h-2.4
			v3H124.2z"/>
		<path class="st0" d="M137.4,34.7v1.7h-5.3v2.2h4.2v1.7h-4.2v2.5h5.4v1.7h-7.1v-9.7H137.4z"/>
	</g>
	<g>
		<g>
			<path class="st0" d="M30.6,11.2c-0.3-0.4-0.6-0.9-1-1.2c-2.3-2.3-6-2.3-8.3,0c-0.4,0.4-0.7,0.8-1,1.2c-1.3,2.2-1,5.1,1,7
				c2.3,2.3,6,2.3,8.3,0C31.6,16.4,31.9,13.5,30.6,11.2z"/>
			<path class="st0" d="M46.3,43.9c2.3-2.3,2.3-6,0-8.3c-2.3-2.3-6-2.3-8.3,0c-2.3,2.3-6,2.3-8.4,0c-2.3-2.3-6-2.3-8.3,0
				c-2.3,2.3-6,2.3-8.3,0c-2.3-2.3-6-2.3-8.3,0c-2.3,2.3-2.3,6,0,8.3c2.3,2.3,6,2.3,8.3,0c2.3-2.3,6-2.3,8.3,0c2.3,2.3,6,2.3,8.3,0
				c2.3-2.3,6-2.3,8.4,0C40.3,46.2,44,46.2,46.3,43.9z"/>
			<path class="st0" d="M38,31.1c2.3-2.3,2.3-6,0-8.3c-2.3-2.3-6-2.3-8.4,0c-2.3,2.3-6,2.3-8.3,0c-2.3-2.3-6-2.3-8.3,0
				c-2.3,2.3-2.3,6,0,8.3c2.3,2.3,6,2.3,8.3,0c2.3-2.3,6-2.3,8.3,0C32,33.4,35.7,33.4,38,31.1z"/>
		</g>
	</g>
	<g>
		<path class="st0" d="M52.5,8.1h5.4l6.8,18h-5.3l-1.3-3.8h-5.9L51,26.1h-5.3L52.5,8.1z M56.9,18.3l-1.6-5.1h-0.1l-1.6,5.1H56.9z"/>
		<path class="st0" d="M68,20.5c0.5,0.5,1,0.9,1.7,1.3c0.7,0.4,1.4,0.5,2.1,0.5c0.5,0,0.9-0.1,1.3-0.2c0.3-0.1,0.6-0.3,0.8-0.5
			c0.2-0.2,0.3-0.5,0.3-0.7c0-0.3-0.1-0.5-0.4-0.7c-0.2-0.2-0.5-0.4-0.9-0.5c-0.4-0.1-0.9-0.3-1.5-0.5c-1.1-0.4-2.1-0.8-2.9-1.2
			c-0.8-0.4-1.4-1-2-1.7c-0.6-0.7-0.8-1.7-0.8-2.9c0-0.9,0.3-1.8,0.8-2.7c0.6-0.8,1.4-1.5,2.4-2c1-0.5,2.2-0.8,3.6-0.8
			c1.4,0,2.7,0.2,3.8,0.7c1.1,0.5,1.9,1.1,2.5,1.8l-2.8,3c-0.3-0.4-0.8-0.7-1.3-0.9c-0.5-0.3-1.1-0.4-1.7-0.4
			c-0.4,0-0.8,0.1-1.1,0.2c-0.3,0.1-0.5,0.3-0.7,0.5c-0.2,0.2-0.2,0.4-0.2,0.6c0,0.3,0.1,0.5,0.4,0.7c0.2,0.2,0.5,0.4,0.9,0.5
			c0.4,0.1,0.9,0.3,1.5,0.5c1.1,0.4,2.1,0.8,2.9,1.2c0.8,0.4,1.4,1,2,1.7c0.6,0.7,0.8,1.7,0.8,2.9c0,1-0.3,2-0.9,2.9
			c-0.6,0.9-1.4,1.6-2.5,2.1c-1.1,0.5-2.3,0.8-3.7,0.8c-1.6,0-3-0.3-4.2-0.9c-1.2-0.6-2.2-1.3-2.9-2.2L68,20.5z"/>
		<path class="st0" d="M80.2,12.5V8.1h14.9v4.4h-5v13.6h-4.9V12.5H80.2z"/>
		<path class="st0" d="M105.9,8.1c1.3,0,2.4,0.3,3.4,0.8c1,0.5,1.8,1.3,2.3,2.2c0.6,0.9,0.8,2,0.8,3.1c0,1.3-0.3,2.3-0.9,3.2
			c-0.6,0.9-1.3,1.5-2.2,1.9l3.7,6.7h-5.1l-3-5.6h-2.7v5.6h-4.9v-18H105.9z M105.6,16.1c0.4,0,0.7-0.1,1-0.2
			c0.3-0.2,0.5-0.4,0.7-0.6c0.2-0.3,0.2-0.6,0.2-0.9c0-0.3-0.1-0.6-0.2-0.9c-0.2-0.3-0.4-0.5-0.7-0.6c-0.3-0.2-0.6-0.2-1-0.2h-3.3
			v3.6H105.6z"/>
		<path class="st0" d="M120.6,8.1h5.4l6.8,18h-5.3l-1.3-3.8h-5.9l-1.3,3.8h-5.3L120.6,8.1z M125,18.3l-1.6-5.1h-0.1l-1.6,5.1H125z"
			/>
		<path class="st0" d="M139,8.1v13.3h7.8v4.6h-12.7v-18H139z"/>
	</g>
	<g>
		<path class="st0" d="M54.9,31c2.9-0.1,7.4-0.3,10.3-0.4l10.3,0c19.1,0.2,42.9-0.4,61.9,0.4c-18.9,0.8-42.8,0.2-61.9,0.4
			c0,0-10.3,0-10.3,0C62.3,31.2,57.7,31.1,54.9,31L54.9,31z"/>
	</g>
	<path class="st0" d="M135.2,6.7v-2h-0.7V4.4h1.9v0.3h-0.7v2H135.2z M136.5,6.7V4.4h0.6l0.6,1.8l0.6-1.8h0.6v2.3h-0.3V4.8l-0.6,1.9
		h-0.3l-0.6-2v2H136.5z"/>
</g>
</svg>
