<svg xmlns="http://www.w3.org/2000/svg" viewBox="0 0 139.98 99.16"><defs><style>.cls-1{fill:#fff;}</style></defs><g id="Layer_2" data-name="Layer 2"><g id="Layer_1-2" data-name="Layer 1"><path class="cls-1" d="M78.85,5.16A10.07,10.07,0,0,0,77.19,3a10.19,10.19,0,0,0-14.4,0,10.07,10.07,0,0,0-1.66,2.18,10.19,10.19,0,1,0,17.72,0Z"/><path class="cls-1" d="M106,61.93A10.19,10.19,0,1,0,91.6,47.53a10.21,10.21,0,0,1-14.41,0,10.18,10.18,0,0,0-14.4,0,10.21,10.21,0,0,1-14.41,0,10.19,10.19,0,1,0,0,14.4,10.19,10.19,0,0,1,14.41,0,10.18,10.18,0,0,0,14.4,0,10.19,10.19,0,0,1,14.41,0A10.19,10.19,0,0,0,106,61.93Z"/><path class="cls-1" d="M91.6,39.66A10.19,10.19,0,0,0,77.19,25.25a10.18,10.18,0,0,1-14.4,0,10.19,10.19,0,1,0,0,14.41,10.18,10.18,0,0,1,14.4,0A10.19,10.19,0,0,0,91.6,39.66Z"/><path class="cls-1" d="M9.41,73.6h7.45l9.41,24.85H19l-1.77-5.32H9.05L7.28,98.45H0Zm6,14-2.23-7.1h-.15l-2.23,7.1Z"/><path class="cls-1" d="M30.89,90.76a8.52,8.52,0,0,0,2.36,1.8,6.27,6.27,0,0,0,3,.74A4.46,4.46,0,0,0,38,93,2.62,2.62,0,0,0,39,92.25a1.57,1.57,0,0,0,.38-1,1.33,1.33,0,0,0-.5-1,4.9,4.9,0,0,0-1.24-.74c-.5-.2-1.2-.46-2.1-.75a31,31,0,0,1-4-1.62,7.69,7.69,0,0,1-2.76-2.34,6.49,6.49,0,0,1-1.15-4,6.56,6.56,0,0,1,1.15-3.7,8.17,8.17,0,0,1,3.31-2.78,11.12,11.12,0,0,1,5-1,12.5,12.5,0,0,1,5.2,1,9.8,9.8,0,0,1,3.5,2.49L41.89,81a6.15,6.15,0,0,0-1.79-1.31,5.07,5.07,0,0,0-2.29-.54,4.41,4.41,0,0,0-1.56.24,2.17,2.17,0,0,0-1,.63,1.22,1.22,0,0,0-.32.82,1.24,1.24,0,0,0,.5,1,4.45,4.45,0,0,0,1.24.72c.49.21,1.19.46,2.09.75a31.21,31.21,0,0,1,4,1.62,7.88,7.88,0,0,1,2.75,2.35,6.55,6.55,0,0,1,1.15,4,7,7,0,0,1-1.2,4,8.46,8.46,0,0,1-3.43,2.89,11.73,11.73,0,0,1-5.13,1.07,13.57,13.57,0,0,1-5.87-1.22A12,12,0,0,1,27,95Z"/><path class="cls-1" d="M47.75,79.64v-6H68.34v6H61.42V98.45H54.67V79.64Z"/><path class="cls-1" d="M83.25,73.6a9.65,9.65,0,0,1,4.69,1.12,8.18,8.18,0,0,1,3.21,3.07,8.35,8.35,0,0,1,1.15,4.33A7.6,7.6,0,0,1,88,89.22l5.15,9.23h-7.1L82,90.64H78.28v7.81H71.53V73.6Zm-.36,11a3,3,0,0,0,1.39-.32,2.44,2.44,0,0,0,.94-.89,2.58,2.58,0,0,0,0-2.56,2.35,2.35,0,0,0-.94-.88,2.85,2.85,0,0,0-1.39-.32H78.28v5Z"/><path class="cls-1" d="M103.66,73.6h7.46l9.4,24.85h-7.27l-1.78-5.32h-8.16l-1.78,5.32H94.25Zm6,14-2.24-7.1h-.14l-2.24,7.1Z"/><path class="cls-1" d="M129.15,73.6V92.06H140v6.39H122.41V73.6Z"/></g></g></svg>