<svg xmlns="http://www.w3.org/2000/svg" xmlns:xlink="http://www.w3.org/1999/xlink" viewBox="0 0 23.64 23.18"><defs><style>.cls-1{fill:none;stroke:#00312f;stroke-miterlimit:10;stroke-width:0.5px;}.cls-2{clip-path:url(#clip-path);}.cls-3{fill:#00312f;}</style><clipPath id="clip-path"><circle class="cls-1" cx="11.59" cy="11.59" r="11.34" transform="translate(-2.33 20.24) rotate(-76.87)"/></clipPath></defs><g id="Layer_2" data-name="Layer 2"><g id="Layer_1-2" data-name="Layer 1"><g class="cls-2"><path class="cls-3" d="M19.75,20.15,13.9,17C6.72,13.12,6.16,6.94,6.16,5.14a1.06,1.06,0,0,1,.42-.9c.93-.7,3.06-.1,3.16-.07C14.6,5.85,23.4,5.9,23.49,5.9h.15l-.2.51h-.07A64.52,64.52,0,0,1,9.52,5a14.67,14.67,0,0,0-1,2,3.72,3.72,0,0,0,1,3.39,10.85,10.85,0,0,1,1.17,1.57,14.94,14.94,0,0,0,2.24,2.85c1.67,1.58,7.92,4.58,8,4.61l.2.1ZM7.9,4.12a2,2,0,0,0-1.19.29.85.85,0,0,0-.34.73c0,1.77.55,7.85,7.63,11.69l5.75,3.08.87-.42c-1.1-.53-6.3-3.09-7.85-4.56a15.31,15.31,0,0,1-2.27-2.88A10.77,10.77,0,0,0,9.36,10.5,3.87,3.87,0,0,1,8.29,6.9,15.31,15.31,0,0,1,9.38,4.79l0-.07.07,0A65.61,65.61,0,0,0,23.3,6.2l0-.09c-1.2,0-9.12-.17-13.66-1.74A7.87,7.87,0,0,0,7.9,4.12Z"/><path class="cls-3" d="M17.94,14.77,17.22,14v-.82l.36.36V11.63h.73v1.95l.36-.36V14ZM17.32,14l.62.62.62-.62v-.53l-.36.36V11.74h-.52v2.09l-.36-.36Z"/><path class="cls-3" d="M20.86,14.77,20.13,14v-.82l.36.36V11.63h.73v1.95l.36-.36V14ZM20.24,14l.62.62.62-.62v-.53l-.36.36V11.74H20.6v2.09l-.36-.36Z"/><path class="cls-3" d="M15.94,15.19h-1l-.58-.58h.51l-1.38-1.38.52-.51,1.38,1.37v-.51l.58.58Zm-1-.11h.87v-.87l-.37-.37v.51L14,12.87l-.37.36,1.48,1.48h-.5Z"/><path class="cls-3" d="M12.35,9.22H10.89L9.62,8l1.27-1.27h1.46l-.62.62h9.91V8.6H11.73ZM11,9h.87l-.62-.62h10.2V7.52H11.22l.62-.62H11L9.92,8Z"/></g><circle class="cls-1" cx="11.59" cy="11.59" r="11.34" transform="translate(-2.33 20.24) rotate(-76.87)"/></g></g></svg>