<svg xmlns="http://www.w3.org/2000/svg" viewBox="0 0 23.18 23.18"><defs><style>.cls-1{isolation:isolate;}.cls-2{fill:none;stroke:#00312f;stroke-miterlimit:10;stroke-width:0.5px;}.cls-3{fill:#00312f;}.cls-4{mix-blend-mode:multiply;}</style></defs><g class="cls-1"><g id="Layer_2" data-name="Layer 2"><g id="Layer_1-2" data-name="Layer 1"><circle class="cls-2" cx="11.59" cy="11.59" r="11.34" transform="translate(-4.8 11.59) rotate(-45)"/><path class="cls-3" d="M12.66,17c-2.87,0-5.93-.44-5.93-1.27s3.06-1.27,5.93-1.27,5.92.45,5.92,1.27S15.53,17,12.66,17Zm0-2.32c-3.67,0-5.7.62-5.7,1s2,1.05,5.7,1.05,5.7-.62,5.7-1.05S16.33,14.72,12.66,14.72Zm.75,1.85c-1.33,0-3.83-.17-3.83-.8s2.5-.79,3.83-.79,3.83.16,3.83.79S14.73,16.57,13.41,16.57Zm0-1.37c-2.33,0-3.61.38-3.61.57s1.28.58,3.61.58S17,16,17,15.77,15.74,15.2,13.41,15.2Z"/><g class="cls-4"><path class="cls-3" d="M7.4,16.07c-.38,0-.72-.55-1-1.64a19.24,19.24,0,0,1-.56-3.86C5.68,7.88,6,5,6.83,4.94h0c.84,0,1.45,2.82,1.59,5.49h0c.14,2.7-.17,5.59-1,5.64ZM6.86,5.17h0c-.52,0-1,2.25-.81,5.39a19.61,19.61,0,0,0,.55,3.81c.3,1.09.62,1.47.81,1.47h0c.51,0,1-2.25.8-5.39h0C8.05,7.32,7.37,5.17,6.86,5.17Z"/></g><g class="cls-4"><path class="cls-3" d="M7.52,16.09a.4.4,0,0,1-.15,0c-.78-.32-.13-3.15.88-5.66s2.52-5,3.32-4.66.13,3.15-.89,5.65h0C9.73,13.75,8.34,16.09,7.52,16.09ZM11.41,5.93c-.54,0-1.82,1.78-2.95,4.56s-1.48,5.17-1,5.36,1.83-1.63,3-4.54h0c1.18-2.92,1.48-5.17,1-5.37Z"/></g><g class="cls-4"><path class="cls-3" d="M7.52,16.1A.28.28,0,0,1,7.34,16c-.53-.49,1.79-3.31,3.09-4.72s3.91-4,4.44-3.49-1.79,3.3-3.09,4.72h0C10.59,13.85,8.31,16.1,7.52,16.1ZM14.67,8c-.34,0-1.85,1.07-4.07,3.49-2.37,2.58-3.28,4.24-3.11,4.4S9.24,15,11.62,12.4h0C14,9.82,14.9,8.16,14.72,8Z"/></g><g class="cls-4"><path class="cls-3" d="M7.61,16.11c-.15,0-.26,0-.29-.11C7,15.36,11.83,13.05,12,13a37,37,0,0,1,3.57-1.51c1.61-.56,1.71-.35,1.76-.25s.15.32-1.3,1.22a38.33,38.33,0,0,1-3.41,1.84h0C12.47,14.33,8.73,16.11,7.61,16.11Zm-.08-.21c.29.09,2.18-.5,5-1.86h0c2.84-1.36,4.49-2.46,4.6-2.74-.29-.09-2.18.5-5,1.85S7.64,15.62,7.53,15.9Z"/></g></g></g></g></svg>