<svg xmlns="http://www.w3.org/2000/svg" viewBox="0 0 308.7 51.43"><defs><style>.cls-1{fill:#fff;}</style></defs><g id="Layer_2" data-name="Layer 2"><g id="Layer_1-2" data-name="Layer 1"><path class="cls-1" d="M85,4.69H97.77l16.12,42.58H101.42l-3-9.12h-14l-3,9.12H68.88Zm10.34,24L91.51,16.55h-.25L87.43,28.72Z"/><path class="cls-1" d="M121.8,34.09a14.74,14.74,0,0,0,4,3.08,10.7,10.7,0,0,0,5.08,1.28,7.9,7.9,0,0,0,3-.5,4.65,4.65,0,0,0,1.86-1.3,2.74,2.74,0,0,0,.63-1.74,2.22,2.22,0,0,0-.85-1.74,7.9,7.9,0,0,0-2.13-1.27c-.85-.35-2-.78-3.58-1.29A53.72,53.72,0,0,1,123,27.85a13.44,13.44,0,0,1-4.71-4,11.1,11.1,0,0,1-2-6.84,11.21,11.21,0,0,1,2-6.33A13.9,13.9,0,0,1,124,5.88a19.2,19.2,0,0,1,8.48-1.8,21.62,21.62,0,0,1,8.91,1.74,16.58,16.58,0,0,1,6,4.27l-6.69,7.2A10.31,10.31,0,0,0,137.58,15a8.75,8.75,0,0,0-3.92-.92,7.75,7.75,0,0,0-2.68.41,3.66,3.66,0,0,0-1.64,1.07,2.12,2.12,0,0,0,.3,3.12A8,8,0,0,0,131.77,20c.85.34,2,.77,3.59,1.27A52.81,52.81,0,0,1,142.17,24a13.44,13.44,0,0,1,4.72,4,11.26,11.26,0,0,1,2,6.87,12,12,0,0,1-2.07,6.78,14.35,14.35,0,0,1-5.86,4.95,20.07,20.07,0,0,1-8.79,1.84,23.3,23.3,0,0,1-10.07-2.1,20.56,20.56,0,0,1-7-5.1Z"/><path class="cls-1" d="M150.69,15V4.69H186V15H174.1V47.27H162.55V15Z"/><path class="cls-1" d="M211.51,4.69a16.52,16.52,0,0,1,8,1.92,14.07,14.07,0,0,1,5.5,5.26,14.29,14.29,0,0,1,2,7.42,13.08,13.08,0,0,1-2.13,7.6,13.22,13.22,0,0,1-5.17,4.57l8.82,15.81H216.38l-7-13.38H203V47.27H191.44V4.69Zm-.61,18.86a4.93,4.93,0,0,0,2.37-.55,4,4,0,0,0,1.62-1.52,4.49,4.49,0,0,0,0-4.38,4.09,4.09,0,0,0-1.62-1.52A5.05,5.05,0,0,0,210.9,15H203v8.52Z"/><path class="cls-1" d="M246.48,4.69h12.78l16.11,42.58H262.9l-3-9.12h-14l-3,9.12H230.36Zm10.34,24L253,16.55h-.24l-3.83,12.17Z"/><path class="cls-1" d="M290.15,4.69V36.32H308.7v11H278.6V4.69Z"/><path class="cls-1" d="M37.92,4.08a8.51,8.51,0,0,0-1.31-1.72,8.08,8.08,0,0,0-11.42,0,8.51,8.51,0,0,0-1.31,1.72,8.07,8.07,0,1,0,14,0Z"/><path class="cls-1" d="M59.43,49.07A8.07,8.07,0,0,0,48,37.65a8.07,8.07,0,0,1-11.41,0,8.08,8.08,0,0,0-11.42,0,8.07,8.07,0,0,1-11.41,0,8.08,8.08,0,1,0,0,11.42,8.05,8.05,0,0,1,11.41,0,8.08,8.08,0,0,0,11.42,0,8.05,8.05,0,0,1,11.41,0A8.07,8.07,0,0,0,59.43,49.07Z"/><path class="cls-1" d="M48,31.42A8.07,8.07,0,0,0,36.61,20a8.08,8.08,0,0,1-11.42,0,8.07,8.07,0,1,0,0,11.41,8.08,8.08,0,0,1,11.42,0A8.07,8.07,0,0,0,48,31.42Z"/></g></g></svg>