<?xml version="1.0" encoding="UTF-8"?> <svg xmlns="http://www.w3.org/2000/svg" viewBox="-16.999 -17.55 50 50"><g><path d="M32.4-5.56c-1.835-6.104-7.722-10.367-14.317-10.367c-3.505,0-6.678,1.216-9.176,3.517c-0.189,0.169-0.366,0.341-0.539,0.52l-0.368,0.383L7.632-11.89c-0.175-0.182-0.356-0.355-0.54-0.524c-2.496-2.297-5.668-3.512-9.171-3.512c-6.596,0-12.484,4.264-14.32,10.369C-17.921-0.492-18.577,13.168,8,30.827C34.579,13.165,33.923-0.495,32.4-5.56z M28.521,7.534c-3.41,6.719-10.217,13.61-20.232,20.48L8,28.213l-0.289-0.198C-2.309,21.141-9.115,14.25-12.52,7.534c-3.454-6.815-2.451-11.625-1.001-14.459c2.122-4.142,6.592-6.819,11.39-6.819c3.181,0,6.096,1.196,8.21,3.368L8-8.399l1.922-1.979c2.114-2.172,5.028-3.368,8.207-3.368c4.799,0,9.27,2.677,11.392,6.821C30.971-4.095,31.975,0.71,28.521,7.534z"></path></g></svg> 